<svg width="73" height="73" viewBox="0 0 73 73" fill="none" xmlns="http://www.w3.org/2000/svg">
<mask id="mask0_3_650" style="mask-type:luminance" maskUnits="userSpaceOnUse" x="0" y="0" width="73" height="73">
<path d="M72.6562 0H0V72.6562H72.6562V0Z" fill="white"/>
</mask>
<g mask="url(#mask0_3_650)">
<mask id="mask1_3_650" style="mask-type:luminance" maskUnits="userSpaceOnUse" x="-30" y="-29" width="135" height="131">
<path d="M104.096 -28.915H-29.4457V101.852H104.096V-28.915Z" fill="white"/>
</mask>
<g mask="url(#mask1_3_650)">
<path d="M43.6479 70.6164L70.4148 43.3424C70.7277 43.0247 70.9466 42.6236 71.0463 42.1851C71.146 41.7467 71.1226 41.2884 70.9788 40.8629C70.8349 40.4373 70.5764 40.0615 70.2327 39.7786C69.8891 39.4956 69.4743 39.3169 69.0356 39.2628L39.7732 35.5193C37.8221 35.264 35.871 35.9403 35.6198 37.9272C35.6369 38.4807 35.6926 39.0323 35.7864 39.5779L39.6098 69.2393C39.6702 69.6859 39.8518 70.1065 40.1342 70.4536C40.4167 70.8007 40.7887 71.0605 41.2084 71.2037C41.6281 71.3469 42.0787 71.3678 42.5093 71.264C42.94 71.1602 43.3337 70.9359 43.6459 70.6164" fill="black"/>
<path d="M12.6789 41.5119L27.0102 42.855C27.8551 42.9318 28.6474 43.306 29.251 43.9131C29.8545 44.5203 30.2317 45.3226 30.3177 46.1823L31.7302 60.6898C31.7996 61.4293 31.5779 62.1666 31.1138 62.7396C30.6497 63.3127 29.9811 63.6744 29.2552 63.7454L29.2132 63.7495L11.2198 65.3024C10.8235 65.3383 10.4242 65.2858 10.0498 65.1486C9.67532 65.0115 9.33471 64.7928 9.0516 64.508C8.76849 64.2231 8.54967 63.8789 8.41036 63.4992C8.27105 63.1195 8.21459 62.7134 8.2449 62.3093L9.67136 44.0705C9.73196 43.3281 10.0796 42.6406 10.6377 42.1593C11.1958 41.6779 11.9188 41.4421 12.6476 41.5038H12.6776" fill="black"/>
<path d="M33.4594 1.78655L67.8492 1.60864C68.5648 1.60881 69.252 1.89434 69.7637 2.40412C70.2753 2.9139 70.5707 3.60743 70.5868 4.33631L71.6 40.7819C71.6063 41.1909 71.5248 41.5964 71.3613 41.97C71.1977 42.3436 70.956 42.6763 70.653 42.9448C70.35 43.2133 69.9931 43.4111 69.6072 43.5243C69.2213 43.6376 68.8158 43.6636 68.4191 43.6006L2.45519 33.631C2.12208 33.5798 1.80946 33.4354 1.55211 33.214C1.29477 32.9925 1.1028 32.7026 0.997575 32.3766C0.892349 32.0506 0.877991 31.7012 0.956102 31.3674C1.03421 31.0336 1.20173 30.7284 1.44 30.4858L26.903 4.54002C27.7639 3.66293 28.7867 2.96803 29.9124 2.49535C31.0381 2.02267 32.2445 1.78154 33.4621 1.78587" fill="black"/>
<g opacity="0.34">
<mask id="mask2_3_650" style="mask-type:luminance" maskUnits="userSpaceOnUse" x="35" y="38" width="36" height="16">
<path d="M70.8309 38.6423H35.6166V53.3977H70.8309V38.6423Z" fill="white"/>
</mask>
<g mask="url(#mask2_3_650)">
<mask id="mask3_3_650" style="mask-type:luminance" maskUnits="userSpaceOnUse" x="35" y="38" width="36" height="16">
<path d="M70.8312 38.6423H35.6169V53.3977H70.8312V38.6423Z" fill="white"/>
</mask>
<g mask="url(#mask3_3_650)">
<path d="M35.6169 38.6423L68.5969 43.6332C69.0066 43.6656 69.4184 43.6075 69.804 43.4627C70.1897 43.318 70.5401 43.0901 70.8312 42.7946C70.6685 43.0529 70.476 43.2904 70.258 43.5022L37.5707 53.3977L35.6169 38.6423Z" fill="white"/>
</g>
</g>
</g>
</g>
</g>
</svg>
